<svg width="59" height="72" fill="none" xmlns="http://www.w3.org/2000/svg">
<path fill-rule="evenodd" clip-rule="evenodd" d="M58.34 21.2499c-.5665-.7425-1.4539-1.179-2.396-1.1786h-38.67l-2.475-7.2839H3.058c-1.6569 0-3 1.3248-3 2.9589 0 1.6342 1.3431 2.9589 3 2.9589h7.424l13.5 39.7332h25.159c1.6568 0 3-1.3248 3-2.9589 0-1.6342-1.3432-2.9589-3-2.9589H28.299l-1.726-5.0785h23.12c1.338-.0001 2.5144-.8739 2.884-2.1422l6.25-21.4521c.2596-.8934.0793-1.8551-.487-2.5979zm-7.781 9.5484h-4.81v-4.8092h6.211l-1.401 4.8092zm-17.617-4.8092v4.8082h6.807v-4.8082h-6.807zm6.807 10.727v4.8082h-6.807v-4.8082h6.807zm-12.807-5.9188v-4.8082h-7.657l1.634 4.8082h6.023zm-4.013 5.9188h4.013v4.8082h-2.379l-1.634-4.8082zm22.82 0v4.8082h1.685l1.401-4.8082h-3.086z" fill="#fff"/>
<path d="M27.406 71.8768c3.1928 0 5.781-2.5528 5.781-5.7018 0-3.1491-2.5882-5.7019-5.781-5.7019-3.1928 0-5.781 2.5528-5.781 5.7019 0 3.149 2.5882 5.7018 5.781 5.7018zM44.844 71.8768c3.1927 0 5.781-2.5528 5.781-5.7018 0-3.1491-2.5883-5.7019-5.781-5.7019-3.1928 0-5.781 2.5528-5.781 5.7019 0 3.149 2.5882 5.7018 5.781 5.7018zM29.335 10.5525l7.547 5.4167a2.0072 2.0072 0 001.514.3474c.5316-.0919 1.0024-.3932 1.304-.8346.646-.9232.43-2.2014-.48-2.8553l-2.373-1.7024 9.436-5.0203 4.628 11.8495h4.347L49.214 2.2774c-.207-.5359-.6348-.96-1.177-1.1668a1.9945 1.9945 0 00-1.643.1075L33.146 8.2672l-3.022-2.1689c-.8689-.6252-2.0844-.4546-2.742.3847L18.901 17.133a2.1412 2.1412 0 00-.405.6194h5.106l5.733-7.2z" fill="#fff"/>
</svg>
