<svg width="220" height="68" viewBox="0 0 220 68" fill="none" xmlns="http://www.w3.org/2000/svg">
<g filter="url(#filter0_i)">
<rect width="220" height="68" fill="#EE3643"/>
</g>
<path fill-rule="evenodd" clip-rule="evenodd" d="M173.694 23.397V42.297H170.994V23.397H166.194V21.297H178.494V23.397H173.694ZM163.299 34.512C162.829 35.102 162.239 35.522 161.529 35.772C160.819 36.022 159.974 36.147 158.994 36.147C158.534 36.147 158.014 36.117 157.434 36.057C156.854 35.997 156.374 35.927 155.994 35.847V42.297H153.294V21.597C154.054 21.377 154.819 21.222 155.589 21.132C156.359 21.042 157.194 20.997 158.094 20.997C159.294 20.997 160.314 21.122 161.154 21.372C161.994 21.622 162.674 22.037 163.194 22.617C163.714 23.197 164.094 23.967 164.334 24.927C164.574 25.887 164.694 27.077 164.694 28.497C164.694 29.957 164.579 31.177 164.349 32.157C164.119 33.137 163.769 33.922 163.299 34.512ZM161.769 25.797C161.619 25.077 161.384 24.507 161.064 24.087C160.744 23.667 160.339 23.372 159.849 23.202C159.359 23.032 158.774 22.947 158.094 22.947H155.994V34.047H158.094C158.774 34.047 159.359 33.962 159.849 33.792C160.339 33.622 160.744 33.327 161.064 32.907C161.384 32.487 161.619 31.917 161.769 31.197C161.919 30.477 161.994 29.577 161.994 28.497C161.994 27.417 161.919 26.517 161.769 25.797ZM146.544 36.897H140.544L139.194 42.297H136.494L141.594 21.297H145.494L150.594 42.297H147.894L146.544 36.897ZM143.604 24.297H143.484L140.994 34.797H146.094L143.604 24.297ZM130.644 26.697H130.494L126.144 39.597H123.444L119.094 26.697H118.944L118.044 42.297H115.344L116.544 21.297H119.844L124.734 35.697H124.854L129.744 21.297H133.044L134.244 42.297H131.544L130.644 26.697ZM110.484 40.347C109.924 41.167 109.249 41.747 108.459 42.087C107.669 42.427 106.764 42.597 105.744 42.597C104.724 42.597 103.819 42.427 103.029 42.087C102.239 41.747 101.564 41.167 101.004 40.347C100.444 39.527 100.019 38.422 99.729 37.032C99.439 35.642 99.294 33.897 99.294 31.797C99.294 29.697 99.439 27.952 99.729 26.562C100.019 25.172 100.444 24.067 101.004 23.247C101.564 22.427 102.239 21.847 103.029 21.507C103.819 21.167 104.724 20.997 105.744 20.997C106.764 20.997 107.669 21.167 108.459 21.507C109.249 21.847 109.924 22.427 110.484 23.247C111.044 24.067 111.469 25.172 111.759 26.562C112.049 27.952 112.194 29.697 112.194 31.797C112.194 33.897 112.049 35.642 111.759 37.032C111.469 38.422 111.044 39.527 110.484 40.347ZM109.179 27.357C108.969 26.197 108.694 25.277 108.354 24.597C108.014 23.917 107.614 23.447 107.154 23.187C106.694 22.927 106.224 22.797 105.744 22.797C105.264 22.797 104.794 22.927 104.334 23.187C103.874 23.447 103.474 23.917 103.134 24.597C102.794 25.277 102.519 26.197 102.309 27.357C102.099 28.517 101.994 29.997 101.994 31.797C101.994 33.597 102.099 35.077 102.309 36.237C102.519 37.397 102.794 38.317 103.134 38.997C103.474 39.677 103.874 40.147 104.334 40.407C104.794 40.667 105.264 40.797 105.744 40.797C106.224 40.797 106.694 40.667 107.154 40.407C107.614 40.147 108.014 39.677 108.354 38.997C108.694 38.317 108.969 37.397 109.179 36.237C109.389 35.077 109.494 33.597 109.494 31.797C109.494 29.997 109.389 28.517 109.179 27.357ZM92.994 32.697H86.694V42.297H83.994V21.297H86.694V30.597H92.994V21.297H95.694V42.297H92.994V32.697ZM78.745 42.297L74.995 33.297L71.245 42.297H68.545L73.045 31.497L68.995 21.297H71.695L74.995 29.697L78.295 21.297H80.995L76.945 31.497L81.445 42.297H78.745ZM56.695 21.297H66.895V23.397H59.395V30.297H65.995V32.397H59.395V40.197H66.895V42.297H56.695V21.297ZM49.495 42.297H46.795V23.397H41.995V21.297H54.295V23.397H49.495V42.297Z" fill="white"/>
<defs>
<filter id="filter0_i" x="0" y="0" width="220" height="68" filterUnits="userSpaceOnUse" color-interpolation-filters="sRGB">
<feFlood flood-opacity="0" result="BackgroundImageFix"/>
<feBlend mode="normal" in="SourceGraphic" in2="BackgroundImageFix" result="shape"/>
<feColorMatrix in="SourceAlpha" type="matrix" values="0 0 0 0 0 0 0 0 0 0 0 0 0 0 0 0 0 0 127 0" result="hardAlpha"/>
<feOffset dy="-5"/>
<feComposite in2="hardAlpha" operator="arithmetic" k2="-1" k3="1"/>
<feColorMatrix type="matrix" values="0 0 0 0 0 0 0 0 0 0 0 0 0 0 0 0 0 0 0.24 0"/>
<feBlend mode="normal" in2="shape" result="effect1_innerShadow"/>
</filter>
</defs>
</svg>
